<?xml version="1.0" encoding="utf-8"?>
<!-- Generator: Adobe Illustrator 25.2.0, SVG Export Plug-In . SVG Version: 6.00 Build 0)  -->
<svg version="1.1" id="Layer_1" xmlns="http://www.w3.org/2000/svg" xmlns:xlink="http://www.w3.org/1999/xlink" x="0px" y="0px"
	 viewBox="0 0 1080 1080" style="enable-background:new 0 0 1080 1080;" xml:space="preserve">
<style type="text/css">
	.st0{opacity:0.18;}
	.st1{fill:none;stroke:#EB7523;stroke-width:6.7562;stroke-miterlimit:10;}
</style>
<g class="st0">
	<g>
		<circle class="st1" cx="419.26" cy="484" r="75.11"/>
		<circle class="st1" cx="419.26" cy="484" r="40.73"/>
		<circle class="st1" cx="499.85" cy="581.32" r="26.43"/>
		<circle class="st1" cx="344.15" cy="392.44" r="14.15"/>
		<circle class="st1" cx="400" cy="367.15" r="14.15"/>
		<circle class="st1" cx="461" cy="373.18" r="14.15"/>
		<circle class="st1" cx="660.74" cy="484" r="75.11"/>
		<circle class="st1" cx="660.74" cy="484" r="40.73"/>
		<circle class="st1" cx="580.15" cy="581.32" r="26.43"/>
		<polyline class="st1" points="599.62,563.3 540,490.49 480.38,563.3 		"/>
		<circle class="st1" cx="735.85" cy="392.44" r="14.15"/>
		<circle class="st1" cx="680" cy="367.15" r="14.15"/>
		<circle class="st1" cx="619" cy="373.18" r="14.15"/>
		<path class="st1" d="M470.23,428.84c0,0,66.57,20.47,69.77-13.91c3.65-39.29-44.53-32.81-38.59-4.55"/>
		<path class="st1" d="M610.16,428.84c0,0-66.57,20.47-69.77-13.91c-3.65-39.29,44.53-32.81,38.59-4.55"/>
	</g>
	<g>
		<path class="st1" d="M465.6,729.8h-30.86V690c0-8.52,6.91-15.43,15.43-15.43h0c8.52,0,15.43,6.91,15.43,15.43V729.8z"/>
		<path class="st1" d="M496.46,729.8H465.6V690c0-8.52,6.91-15.43,15.43-15.43h0c8.52,0,15.43,6.91,15.43,15.43V729.8z"/>
		<path class="st1" d="M527.32,729.8h-30.86V690c0-8.52,6.91-15.43,15.43-15.43h0c8.52,0,15.43,6.91,15.43,15.43V729.8z"/>
		<path class="st1" d="M558.18,729.8h-30.86V690c0-8.52,6.91-15.43,15.43-15.43l0,0c8.52,0,15.43,6.91,15.43,15.43V729.8z"/>
		<g>
			<path class="st1" d="M398.63,601.31V729.8h36.11v-96.17c0-8.25-2.99-16.22-8.42-22.43l-13.35-15.28
				C408,590.23,398.63,593.75,398.63,601.31z"/>
			<path class="st1" d="M686.86,601.31V729.8h-36.11v-96.17c0-8.25,2.99-16.22,8.42-22.43l13.35-15.28
				C677.49,590.23,686.86,593.75,686.86,601.31z"/>
		</g>
		<path class="st1" d="M619.9,729.8h30.86V690c0-8.52-6.91-15.43-15.43-15.43h0c-8.52,0-15.43,6.91-15.43,15.43V729.8z"/>
		<path class="st1" d="M589.04,729.8h30.86V690c0-8.52-6.91-15.43-15.43-15.43h0c-8.52,0-15.43,6.91-15.43,15.43V729.8z"/>
		<path class="st1" d="M558.18,729.8h30.86V690c0-8.52-6.91-15.43-15.43-15.43l0,0c-8.52,0-15.43,6.91-15.43,15.43V729.8z"/>
		<path class="st1" d="M361.24,747.73c-19.89-10.15-33.54-30.83-33.54-54.64v-3.45c0-33.8,27.5-61.3,61.3-61.3h9.63"/>
		<line class="st1" x1="686.86" y1="754.38" x2="398.63" y2="754.38"/>
		<path class="st1" d="M686.86,628.34H691c33.8,0,61.3,27.5,61.3,61.3v3.45c0,22.09-11.75,41.5-29.33,52.28"/>
		<line class="st1" x1="434.32" y1="628.34" x2="651.18" y2="628.34"/>
		<line class="st1" x1="650.76" y1="652.92" x2="434.74" y2="652.92"/>
		<path class="st1" d="M722.98,711.14c3.02-5.33,4.74-11.49,4.74-18.05v-3.45c0-20.28-16.44-36.71-36.71-36.71h-4.14"/>
		<line class="st1" x1="398.63" y1="729.8" x2="686.86" y2="729.8"/>
		<path class="st1" d="M398.63,652.92H389c-20.28,0-36.71,16.44-36.71,36.71v3.45c0,9.87,3.9,18.83,10.23,25.43"/>
		<g>
			<path class="st1" d="M686.86,652.93v96.17c0,8.25,2.99,16.22,8.42,22.43l13.35,15.28c4.97,5.69,14.34,2.18,14.34-5.38V669.68"/>
			<path class="st1" d="M398.63,652.93v96.17c0,8.25-2.99,16.22-8.42,22.43l-13.35,15.28c-4.97,5.69-14.34,2.18-14.34-5.38V664.21"
				/>
		</g>
	</g>
	<g>
		<path class="st1" d="M303.95,366.5c-54.8,6.26-104.29-33.08-110.55-87.88c-5.01-43.84,26.47-83.43,70.3-88.44
			c35.07-4.01,66.75,21.17,70.75,56.24c3.21,28.06-16.94,53.4-44.99,56.6c-22.44,2.56-42.72-13.55-45.28-36
			c-2.05-17.96,10.84-34.17,28.8-36.23"/>
		<path class="st1" d="M297.1,502.27c-42.61,35.02-105.54,28.87-140.56-13.73c-28.02-34.08-23.1-84.43,10.99-112.45
			c27.27-22.41,67.54-18.48,89.96,8.79c17.93,21.81,14.78,54.03-7.03,71.97c-17.45,14.34-43.23,11.83-57.57-5.62
			c-11.48-13.96-9.46-34.58,4.5-46.06"/>
		<path class="st1" d="M331.19,586.98c-2.84,55.08-49.79,97.43-104.87,94.59c-44.06-2.27-77.94-39.84-75.67-83.9
			c1.82-35.25,31.87-62.35,67.12-60.53c28.2,1.45,49.88,25.49,48.43,53.7c-1.16,22.56-20.4,39.91-42.96,38.74
			c-18.05-0.93-31.92-16.32-30.99-34.36"/>
		<path class="st1" d="M776.05,366.5c54.8,6.26,104.29-33.08,110.55-87.88c5.01-43.84-26.47-83.43-70.3-88.44
			c-35.07-4.01-66.75,21.17-70.75,56.24c-3.21,28.06,16.94,53.4,44.99,56.6c22.44,2.56,42.72-13.55,45.28-36
			c2.05-17.96-10.84-34.17-28.8-36.23"/>
		<path class="st1" d="M782.9,502.27c42.61,35.02,105.54,28.87,140.56-13.73c28.02-34.08,23.1-84.43-10.99-112.45
			c-27.27-22.41-67.54-18.48-89.96,8.79c-17.93,21.81-14.78,54.03,7.03,71.97c17.45,14.34,43.23,11.83,57.57-5.62
			c11.48-13.96,9.46-34.58-4.5-46.06"/>
		<path class="st1" d="M748.81,586.98c2.84,55.08,49.79,97.43,104.87,94.59c44.06-2.27,77.94-39.84,75.67-83.9
			c-1.82-35.25-31.87-62.35-67.12-60.53c-28.2,1.45-49.88,25.49-48.43,53.7c1.16,22.56,20.4,39.91,42.96,38.74
			c18.05-0.93,31.92-16.32,30.99-34.36"/>
	</g>
	<g>
		<path class="st1" d="M602.2,208.69l-61.8-74.14l-0.4,0.47l-0.4-0.47l-61.8,74.14c-12.64,14.97-12.75,36.84-0.26,51.94l13.79,16.68
			v15.72c0,9.81,7.96,17.77,17.77,17.77h61.81c9.82,0,17.77-7.96,17.77-17.77V277.3l13.79-16.68
			C614.95,245.53,614.84,223.66,602.2,208.69z"/>
		<circle class="st1" cx="540" cy="236.41" r="24.28"/>
	</g>
	<g>
		<line class="st1" x1="413.94" y1="770.48" x2="413.94" y2="868.26"/>
		<line class="st1" x1="431.99" y1="770.48" x2="431.99" y2="886.31"/>
		<line class="st1" x1="450.04" y1="770.48" x2="450.04" y2="898.43"/>
		<line class="st1" x1="468.1" y1="770.48" x2="468.1" y2="910.54"/>
		<line class="st1" x1="486.15" y1="770.48" x2="486.15" y2="923.37"/>
		<line class="st1" x1="504.2" y1="770.48" x2="504.2" y2="931.21"/>
		<line class="st1" x1="522.26" y1="770.48" x2="522.26" y2="939.05"/>
		<line class="st1" x1="666.06" y1="770.48" x2="666.06" y2="868.26"/>
		<line class="st1" x1="648.01" y1="770.48" x2="648.01" y2="886.31"/>
		<line class="st1" x1="629.96" y1="770.48" x2="629.96" y2="898.43"/>
		<line class="st1" x1="611.9" y1="770.48" x2="611.9" y2="910.54"/>
		<line class="st1" x1="593.85" y1="770.48" x2="593.85" y2="923.37"/>
		<line class="st1" x1="575.8" y1="770.48" x2="575.8" y2="931.21"/>
		<line class="st1" x1="557.74" y1="770.48" x2="557.74" y2="939.05"/>
		<line class="st1" x1="540.31" y1="770.48" x2="540.31" y2="945.46"/>
	</g>
	<g>
		<path class="st1" d="M373.66,243.65l-5.88,25.9c-1.48,6.51,2.48,13.02,8.94,14.71l0,0c3.82,1,7.88,0.12,10.94-2.37h0
			c5.18-4.21,6.09-11.77,2.06-17.09L373.66,243.65z"/>
		<path class="st1" d="M422.07,221.29l-6.94,30.61c-1.75,7.7,2.93,15.39,10.56,17.39h0c4.51,1.18,9.31,0.14,12.93-2.8h0
			c6.13-4.98,7.2-13.91,2.43-20.2L422.07,221.29z"/>
		<path class="st1" d="M706.34,243.65l5.88,25.9c1.48,6.51-2.48,13.02-8.94,14.71v0c-3.82,1-7.88,0.12-10.94-2.37l0,0
			c-5.18-4.21-6.09-11.77-2.06-17.09L706.34,243.65z"/>
		<path class="st1" d="M657.93,221.29l6.94,30.61c1.75,7.7-2.93,15.39-10.56,17.39l0,0c-4.51,1.18-9.31,0.14-12.93-2.8l0,0
			c-6.13-4.98-7.2-13.91-2.43-20.2L657.93,221.29z"/>
	</g>
</g>
</svg>
