<?xml version="1.0" encoding="utf-8"?>
<!-- Generator: Adobe Illustrator 25.2.0, SVG Export Plug-In . SVG Version: 6.00 Build 0)  -->
<svg version="1.1" id="Layer_1" xmlns="http://www.w3.org/2000/svg" xmlns:xlink="http://www.w3.org/1999/xlink" x="0px" y="0px"
	 viewBox="0 0 512 512" style="enable-background:new 0 0 512 512;" xml:space="preserve">
<style type="text/css">
	.st0{fill:#00D8FF;}
	.st1{fill:#FF2E60;}
	.st2{fill:#4D2695;}
	.st3{fill:#FFBC1D;}
	.st4{fill:#A4DF47;}
	.st5{fill:#FFFFFF;}
	.st6{fill:#5883FA;}
	.st7{fill:#00B1D1;}
</style>
<g>
	<rect x="347.85" y="163.16" class="st0" width="46.11" height="92.88"/>
	<g>
		<path class="st0" d="M68.65,348.61h185.34c0,51.19-41.5,92.67-92.67,92.67C110.13,441.28,68.65,399.8,68.65,348.61z"/>
		<path class="st1" d="M110.8,348.61h101.05c0,27.91-22.63,50.53-50.53,50.53C133.41,399.13,110.8,376.52,110.8,348.61z"/>
	</g>
	<g>
		<path class="st0" d="M254.86,348.61H440.2c0,51.19-41.5,92.67-92.67,92.67C296.34,441.28,254.86,399.8,254.86,348.61z"/>
		<path class="st1" d="M297,348.61h101.05c0,27.91-22.63,50.53-50.53,50.53C319.62,399.13,297,376.52,297,348.61z"/>
	</g>
	
		<rect x="162.04" y="256.14" transform="matrix(-1 -1.224647e-16 1.224647e-16 -1 416.5357 604.7527)" class="st2" width="92.46" height="92.46"/>
	<g>
		<path class="st0" d="M254.52,256.39v91.98h-92.49C162.31,297.52,203.61,256.39,254.52,256.39z"/>
		<path class="st3" d="M254.5,302.64v45.73h-46.22C208.54,323.06,229.13,302.64,254.5,302.64z"/>
	</g>
	<rect x="255.17" y="256.14" class="st2" width="92.46" height="92.46"/>
	<g>
		<path class="st0" d="M254.5,256.39v91.98h92.49C346.71,297.52,305.41,256.39,254.5,256.39z"/>
		<path class="st3" d="M254.52,302.64v45.73h46.22C300.48,323.06,279.9,302.64,254.52,302.64z"/>
	</g>
	<g>
		<path class="st2" d="M208.21,70.49c-25.62,0-46.4,20.78-46.4,46.4l92.8,0C254.61,91.26,233.84,70.49,208.21,70.49z"/>
		
			<rect x="185" y="93.7" transform="matrix(3.267951e-07 -1 1 3.267951e-07 68.1102 348.3054)" class="st0" width="46.42" height="92.8"/>
		<circle class="st4" cx="208.31" cy="117.01" r="25.93"/>
	</g>
	<g>
		<path class="st2" d="M300.74,70.49c-25.62,0-46.4,20.78-46.4,46.4l92.8,0C347.14,91.26,326.37,70.49,300.74,70.49z"/>
		
			<rect x="277.53" y="93.7" transform="matrix(3.267958e-07 -1 1 3.267958e-07 160.6464 440.8415)" class="st0" width="46.42" height="92.8"/>
		<circle class="st4" cx="300.85" cy="117.01" r="25.93"/>
	</g>
	<g>
		<rect x="69.12" y="302.59" class="st1" width="92.71" height="45.82"/>
		
			<ellipse transform="matrix(0.6682 -0.744 0.744 0.6682 -211.8769 176.657)" class="st5" cx="92.11" cy="325.86" rx="14.66" ry="14.66"/>
		
			<ellipse transform="matrix(0.7071 -0.7071 0.7071 0.7071 -189.8626 193.3438)" class="st5" cx="138.46" cy="325.86" rx="14.66" ry="14.66"/>
	</g>
	<g>
		<rect x="347.65" y="302.59" class="st1" width="92.71" height="45.82"/>
		
			<ellipse transform="matrix(0.6682 -0.744 0.744 0.6682 -119.4531 383.8838)" class="st5" cx="370.63" cy="325.86" rx="14.66" ry="14.66"/>
		
			<ellipse transform="matrix(0.7071 -0.7071 0.7071 0.7071 -108.2843 390.2913)" class="st5" cx="416.98" cy="325.86" rx="14.66" ry="14.66"/>
	</g>
	<g>
		<rect x="394" y="163.51" class="st2" width="46.14" height="138.77"/>
		<g>
			
				<ellipse transform="matrix(0.2317 -0.9728 0.9728 0.2317 138.6748 549.2678)" class="st6" cx="417.07" cy="186.84" rx="14.66" ry="14.66"/>
			
				<ellipse transform="matrix(0.7071 -0.7071 0.7071 0.7071 -42.5209 363.1264)" class="st6" cx="417.07" cy="232.89" rx="14.66" ry="14.66"/>
			
				<ellipse transform="matrix(0.2317 -0.9728 0.9728 0.2317 49.0817 620.0267)" class="st6" cx="417.07" cy="278.94" rx="14.66" ry="14.66"/>
		</g>
	</g>
	<path class="st1" d="M393.96,209.28L393.96,209.28c-25.59,0-46.33,20.74-46.33,46.33v46.63h46.33V209.28z"/>
	<g>
		<path class="st1" d="M393.98,163.76c0,0,1.09,22.19-11.56,34.71c-12.65,12.52-34.28,11.42-34.28,11.42s-1.12-21.41,11.53-33.93
			C372.33,163.44,393.98,163.76,393.98,163.76z"/>
		<path class="st1" d="M440.12,117.42c0,0,1.09,22.19-11.56,34.71c-12.65,12.52-34.28,11.42-34.28,11.42s-1.12-21.41,11.53-33.93
			C418.46,117.1,440.12,117.42,440.12,117.42z"/>
	</g>
	
		<rect x="115.47" y="163.16" transform="matrix(-1 -4.479806e-11 4.479806e-11 -1 277.0534 419.1972)" class="st0" width="46.11" height="92.88"/>
	<g>
		
			<rect x="69.29" y="163.51" transform="matrix(-1 -4.515511e-11 4.515511e-11 -1 184.7255 465.7809)" class="st2" width="46.14" height="138.77"/>
		<g>
			
				<ellipse transform="matrix(0.9728 -0.2317 0.2317 0.9728 -40.7799 26.4868)" class="st6" cx="92.36" cy="186.84" rx="14.66" ry="14.66"/>
			
				<ellipse transform="matrix(0.7071 -0.7071 0.7071 0.7071 -137.626 133.5224)" class="st6" cx="92.36" cy="232.89" rx="14.66" ry="14.66"/>
			
				<ellipse transform="matrix(0.9728 -0.2317 0.2317 0.9728 -62.1208 28.9935)" class="st6" cx="92.36" cy="278.94" rx="14.66" ry="14.66"/>
		</g>
	</g>
	<path class="st1" d="M115.47,209.28L115.47,209.28c25.59,0,46.33,20.74,46.33,46.33v46.63h-46.33V209.28z"/>
	<g>
		<path class="st1" d="M115.45,163.76c0,0-1.09,22.19,11.56,34.71c12.65,12.52,34.28,11.42,34.28,11.42s1.12-21.41-11.53-33.93
			C137.11,163.44,115.45,163.76,115.45,163.76z"/>
		<path class="st1" d="M69.31,117.42c0,0-1.09,22.19,11.56,34.71c12.65,12.52,34.28,11.42,34.28,11.42s1.12-21.41-11.53-33.93
			C90.97,117.1,69.31,117.42,69.31,117.42z"/>
	</g>
	<g>
		
			<rect x="254.74" y="163.55" transform="matrix(-1 -1.224647e-16 1.224647e-16 -1 602.3701 419.6947)" class="st3" width="92.9" height="92.59"/>
		<g>
			<path class="st2" d="M347.63,210.08v46.05h-46.3C301.47,230.68,322.15,210.08,347.63,210.08z"/>
			<path class="st7" d="M347.62,233.25v22.89h-23.14C324.62,243.47,334.92,233.25,347.62,233.25z"/>
		</g>
		<path class="st4" d="M254.74,163.55L254.74,163.55c25.81,0,46.73,20.92,46.73,46.73v45.87h-46.73V163.55z"/>
		
			<ellipse transform="matrix(0.7071 -0.7071 0.7071 0.7071 -37.1081 284.1822)" class="st1" cx="324.48" cy="186.88" rx="14.66" ry="14.66"/>
	</g>
	<g>
		<rect x="162.04" y="163.55" class="st3" width="92.9" height="92.59"/>
		<g>
			<path class="st2" d="M162.04,210.08v46.05h46.3C208.2,230.68,187.52,210.08,162.04,210.08z"/>
			<path class="st7" d="M162.05,233.25v22.89h23.14C185.05,243.47,174.75,233.25,162.05,233.25z"/>
		</g>
		<path class="st4" d="M254.93,163.55L254.93,163.55c-25.81,0-46.73,20.92-46.73,46.73v45.87h46.73V163.55z"/>
		
			<ellipse transform="matrix(0.7071 -0.7071 0.7071 0.7071 -77.9076 185.6835)" class="st1" cx="185.19" cy="186.88" rx="14.66" ry="14.66"/>
	</g>
	<g>
		<circle cx="161.9" cy="256.26" r="23.5"/>
		<circle class="st5" cx="161.9" cy="256.26" r="13.46"/>
		<circle cx="161.9" cy="256.26" r="6.87"/>
	</g>
	<g>
		<circle cx="347.05" cy="256.26" r="23.5"/>
		<circle class="st5" cx="347.05" cy="256.26" r="13.46"/>
		<circle cx="347.05" cy="256.26" r="6.87"/>
	</g>
	<path class="st5" d="M184.58,348.61H161.9v-22.69h0C174.43,325.92,184.58,336.08,184.58,348.61L184.58,348.61z"/>
	<path class="st5" d="M207.48,348.61h-22.69v-22.69h0C197.32,325.92,207.48,336.08,207.48,348.61L207.48,348.61z"/>
	<path class="st5" d="M230.37,348.61h-22.69v-22.69h0C220.21,325.92,230.37,336.08,230.37,348.61L230.37,348.61z"/>
	<path class="st5" d="M253.26,348.61h-22.69v-22.69h0C243.1,325.92,253.26,336.08,253.26,348.61L253.26,348.61z"/>
	<path class="st5" d="M324.95,348.61h22.69v-22.69h0C335.1,325.92,324.95,336.08,324.95,348.61L324.95,348.61z"/>
	<path class="st5" d="M302.05,348.61h22.69v-22.69h0C312.21,325.92,302.05,336.08,302.05,348.61L302.05,348.61z"/>
	<path class="st5" d="M279.16,348.61h22.69v-22.69h0C289.32,325.92,279.16,336.08,279.16,348.61L279.16,348.61z"/>
	<path class="st5" d="M256.27,348.61h22.69v-22.69l0,0C266.43,325.92,256.27,336.08,256.27,348.61L256.27,348.61z"/>
</g>
</svg>
