<?xml version="1.0" encoding="utf-8"?>
<!-- Generator: Adobe Illustrator 25.2.0, SVG Export Plug-In . SVG Version: 6.00 Build 0)  -->
<svg version="1.1" id="Layer_1" xmlns="http://www.w3.org/2000/svg" xmlns:xlink="http://www.w3.org/1999/xlink" x="0px" y="0px"
	 viewBox="0 0 512 146.24" style="enable-background:new 0 0 512 146.24;" xml:space="preserve">
<style type="text/css">
	.st0{fill-rule:evenodd;clip-rule:evenodd;fill:#263244;}
	.st1{fill-rule:evenodd;clip-rule:evenodd;fill:#0D96A1;}
</style>
<g>
	<path class="st0" d="M141.16,113.39c-13.17,0-23.88-10.72-23.88-23.89V32.38h14.54v57.11c0,5.16,4.19,9.36,9.35,9.36
		c5.15,0,9.35-4.19,9.35-9.36V32.38h14.54v57.11C165.04,102.67,154.33,113.39,141.16,113.39z"/>
	<path class="st1" d="M284.47,32.38c13.18,0,23.88,10.71,23.88,23.88v57.12h-14.53V56.26c0-5.16-4.19-9.36-9.36-9.36
		c-5.15,0-9.35,4.19-9.35,9.36v57.12h-14.54V56.26C260.59,43.09,271.31,32.38,284.47,32.38z"/>
	<path class="st0" d="M110.01,56.26c0-13.18-10.72-23.88-23.88-23.88H29v14.53h57.12c5.15,0,9.35,4.19,9.35,9.36
		c0,5.15-4.19,9.35-9.35,9.35H29v14.54h57.12c5.15,0,9.35,4.19,9.35,9.35c0,5.16-4.19,9.36-9.35,9.36H29v14.54h57.12
		c13.17,0,23.88-10.72,23.88-23.89c0-6.45-2.59-12.31-6.76-16.61C107.42,68.57,110.01,62.72,110.01,56.26z"/>
	<path class="st1" d="M229.44,32.38c-6.45,0-12.31,2.58-16.61,6.76c-4.3-4.18-10.16-6.76-16.63-6.76
		c-13.17,0-23.88,10.71-23.88,23.88v57.12h14.54V56.26c0-5.16,4.19-9.36,9.35-9.36c5.16,0,9.36,4.19,9.36,9.36v57.12h14.54V56.26
		c0-5.16,4.19-9.36,9.35-9.36c5.16,0,9.35,4.19,9.35,9.36v57.12h14.54V56.26C253.32,43.09,242.6,32.38,229.44,32.38z"/>
	<path class="st0" d="M332.04,79.24c0.67,0,1.26-0.11,1.78-0.33c0.52-0.22,0.97-0.53,1.33-0.95c0.35-0.4,0.62-0.91,0.82-1.49
		c0.19-0.58,0.29-1.26,0.29-2.01V61.85h4.93v12.61c0,1.3-0.21,2.5-0.64,3.59c-0.42,1.09-1.03,2.04-1.81,2.82
		c-0.79,0.79-1.74,1.4-2.88,1.83c-1.13,0.44-2.4,0.67-3.81,0.67c-1.42,0-2.69-0.22-3.82-0.67c-1.13-0.43-2.1-1.05-2.89-1.83
		c-0.78-0.79-1.39-1.73-1.8-2.82c-0.42-1.09-0.63-2.29-0.63-3.59V61.85h4.94v12.59c0,0.76,0.09,1.42,0.28,2.01
		c0.19,0.6,0.46,1.1,0.83,1.51c0.36,0.41,0.79,0.73,1.32,0.95C330.79,79.13,331.38,79.24,332.04,79.24z"/>
	<path class="st0" d="M347.54,61.88c0.14,0.02,0.27,0.06,0.39,0.11c0.11,0.05,0.22,0.13,0.33,0.22c0.11,0.1,0.23,0.23,0.36,0.4
		l10.11,12.77c-0.04-0.4-0.07-0.8-0.09-1.19c-0.02-0.38-0.03-0.75-0.03-1.09V61.85h4.35v21.28h-2.57c-0.38,0-0.69-0.06-0.97-0.17
		c-0.26-0.12-0.51-0.33-0.76-0.65l-10.03-12.67c0.03,0.36,0.05,0.73,0.07,1.08c0.02,0.36,0.03,0.69,0.03,1.01v11.4h-4.36V61.85h2.6
		C347.21,61.85,347.39,61.86,347.54,61.88z"/>
	<polygon class="st0" points="381.94,61.85 381.94,65.77 375.95,65.77 375.95,83.13 371.01,83.13 371.01,65.77 365.02,65.77 
		365.02,61.85 	"/>
	<path class="st0" d="M392.84,79.24c0.66,0,1.25-0.11,1.77-0.33c0.52-0.22,0.96-0.53,1.32-0.95c0.36-0.4,0.64-0.91,0.83-1.49
		c0.19-0.58,0.28-1.26,0.28-2.01V61.85h4.94v12.61c0,1.3-0.21,2.5-0.64,3.59c-0.43,1.09-1.03,2.04-1.83,2.82
		c-0.78,0.79-1.74,1.4-2.87,1.83c-1.13,0.44-2.4,0.67-3.81,0.67c-1.42,0-2.7-0.22-3.83-0.67c-1.13-0.43-2.09-1.05-2.87-1.83
		c-0.79-0.79-1.39-1.73-1.81-2.82c-0.42-1.09-0.62-2.29-0.62-3.59V61.85h4.94v12.59c0,0.76,0.09,1.42,0.28,2.01
		c0.19,0.6,0.46,1.1,0.83,1.51c0.35,0.41,0.8,0.73,1.32,0.95C391.58,79.13,392.18,79.24,392.84,79.24z"/>
	<path class="st0" d="M410.13,70.47h0.8c0.73,0,1.25-0.23,1.57-0.69l4.79-6.96c0.26-0.37,0.56-0.63,0.9-0.78
		c0.34-0.13,0.76-0.2,1.24-0.2h4.3l-6.31,8.61c-0.22,0.31-0.47,0.56-0.71,0.77c-0.24,0.21-0.48,0.38-0.74,0.51
		c0.36,0.14,0.7,0.32,1.01,0.57c0.31,0.24,0.59,0.55,0.85,0.96l6.42,9.87h-4.42c-0.28,0-0.52-0.02-0.72-0.06
		c-0.2-0.03-0.37-0.09-0.52-0.17c-0.14-0.07-0.27-0.17-0.37-0.28c-0.11-0.11-0.21-0.24-0.31-0.39l-4.82-7.4
		c-0.17-0.27-0.39-0.46-0.66-0.57c-0.26-0.11-0.63-0.17-1.09-0.17h-1.2v9.05h-4.93V61.85h4.93V70.47z"/>
	<rect x="322.89" y="92.1" class="st0" width="4.97" height="21.29"/>
	<path class="st0" d="M334.95,92.13c0.14,0.02,0.27,0.06,0.39,0.11c0.11,0.06,0.22,0.13,0.33,0.23c0.11,0.09,0.23,0.22,0.36,0.4
		l10.11,12.78c-0.04-0.41-0.07-0.81-0.09-1.19c-0.02-0.39-0.03-0.76-0.03-1.09V92.1h4.35v21.29h-2.57c-0.37,0-0.69-0.06-0.96-0.18
		c-0.26-0.11-0.52-0.33-0.77-0.65l-10.03-12.67c0.03,0.36,0.05,0.73,0.07,1.09c0.02,0.35,0.03,0.69,0.03,1v11.41h-4.36V92.1h2.6
		C334.62,92.1,334.8,92.11,334.95,92.13z"/>
	<path class="st0" d="M368.15,102.73c0-1.05-0.13-2-0.4-2.84c-0.27-0.85-0.67-1.56-1.18-2.16c-0.51-0.58-1.14-1.04-1.88-1.36
		c-0.75-0.31-1.58-0.47-2.53-0.47h-3.3v13.69h3.3c0.95,0,1.78-0.16,2.53-0.47c0.74-0.32,1.36-0.78,1.88-1.36
		c0.51-0.58,0.91-1.31,1.18-2.16C368.02,104.75,368.15,103.8,368.15,102.73L368.15,102.73z M373.2,102.73c0,1.54-0.26,2.96-0.8,4.26
		c-0.52,1.3-1.27,2.42-2.24,3.37c-0.97,0.96-2.13,1.69-3.48,2.23c-1.36,0.52-2.87,0.8-4.53,0.8h-8.27V92.1h8.27
		c1.65,0,3.16,0.27,4.53,0.81c1.35,0.53,2.51,1.28,3.48,2.22c0.96,0.95,1.71,2.07,2.24,3.37C372.94,99.79,373.2,101.21,373.2,102.73
		z"/>
	<path class="st0" d="M391.52,102.73c0-1.05-0.13-2-0.4-2.84c-0.27-0.84-0.67-1.55-1.18-2.14c-0.52-0.58-1.14-1.03-1.88-1.34
		c-0.74-0.31-1.58-0.46-2.53-0.46c-0.95,0-1.81,0.15-2.54,0.46c-0.75,0.31-1.38,0.76-1.88,1.34c-0.51,0.59-0.91,1.3-1.18,2.14
		c-0.27,0.85-0.41,1.8-0.41,2.84c0,1.07,0.14,2.02,0.41,2.86c0.27,0.84,0.67,1.55,1.18,2.14c0.5,0.59,1.14,1.03,1.88,1.33
		c0.74,0.31,1.59,0.46,2.54,0.46c0.95,0,1.79-0.15,2.53-0.46c0.74-0.3,1.36-0.75,1.88-1.33c0.51-0.58,0.91-1.3,1.18-2.14
		C391.39,104.75,391.52,103.8,391.52,102.73L391.52,102.73z M396.58,102.73c0,1.54-0.27,2.97-0.8,4.29
		c-0.53,1.33-1.28,2.48-2.25,3.46c-0.96,0.98-2.12,1.74-3.48,2.3c-1.36,0.56-2.86,0.84-4.53,0.84c-1.65,0-3.17-0.28-4.53-0.84
		c-1.36-0.55-2.53-1.32-3.5-2.3c-0.97-0.98-1.71-2.13-2.25-3.46c-0.53-1.32-0.8-2.75-0.8-4.29c0-1.53,0.26-2.97,0.8-4.29
		c0.53-1.32,1.28-2.47,2.25-3.45c0.97-0.97,2.14-1.73,3.5-2.29c1.36-0.55,2.87-0.84,4.53-0.84c1.66,0,3.16,0.28,4.53,0.85
		c1.36,0.56,2.52,1.32,3.48,2.3c0.97,0.97,1.71,2.12,2.25,3.45C396.31,99.78,396.58,101.21,396.58,102.73z"/>
	<path class="st0" d="M402.09,92.13c0.14,0.02,0.27,0.06,0.39,0.11c0.12,0.06,0.23,0.13,0.33,0.23c0.11,0.09,0.23,0.22,0.37,0.4
		l10.1,12.78c-0.04-0.41-0.06-0.81-0.08-1.19c-0.02-0.39-0.03-0.76-0.03-1.09V92.1h4.35v21.29h-2.58c-0.37,0-0.7-0.06-0.96-0.18
		c-0.26-0.11-0.51-0.33-0.76-0.65l-10.04-12.67c0.03,0.36,0.05,0.73,0.07,1.09c0.02,0.35,0.03,0.69,0.03,1v11.41h-4.35V92.1h2.6
		C401.76,92.1,401.94,92.11,402.09,92.13z"/>
	<polygon class="st0" points="434.73,92.1 434.73,95.89 426,95.89 426,100.86 432.69,100.86 432.69,104.51 426,104.51 426,109.59 
		434.73,109.59 434.73,113.39 421.03,113.39 421.03,92.1 	"/>
	<path class="st0" d="M449.4,96.42c-0.14,0.24-0.3,0.41-0.46,0.52c-0.15,0.12-0.36,0.18-0.61,0.18c-0.22,0-0.46-0.07-0.73-0.21
		c-0.25-0.14-0.54-0.3-0.88-0.47c-0.32-0.18-0.7-0.33-1.12-0.47c-0.41-0.14-0.89-0.21-1.43-0.21c-0.92,0-1.61,0.19-2.06,0.58
		c-0.45,0.39-0.68,0.93-0.68,1.6c0,0.43,0.13,0.79,0.41,1.07c0.27,0.28,0.62,0.52,1.07,0.73c0.44,0.21,0.95,0.39,1.52,0.56
		c0.56,0.17,1.15,0.36,1.74,0.57c0.59,0.2,1.18,0.45,1.74,0.74c0.58,0.28,1.08,0.63,1.52,1.08c0.44,0.43,0.8,0.97,1.07,1.6
		c0.27,0.63,0.42,1.38,0.42,2.27c0,0.99-0.17,1.91-0.52,2.76c-0.34,0.86-0.84,1.6-1.48,2.24c-0.65,0.64-1.44,1.14-2.4,1.5
		c-0.95,0.37-2.03,0.55-3.23,0.55c-0.66,0-1.33-0.07-2.02-0.2c-0.68-0.14-1.35-0.33-1.99-0.59c-0.65-0.24-1.25-0.55-1.81-0.88
		c-0.56-0.34-1.05-0.73-1.47-1.15l1.46-2.3c0.1-0.18,0.25-0.32,0.45-0.42c0.19-0.11,0.4-0.16,0.62-0.16c0.29,0,0.58,0.09,0.89,0.27
		c0.29,0.19,0.62,0.39,1.01,0.61c0.37,0.22,0.81,0.43,1.29,0.62c0.48,0.18,1.06,0.27,1.72,0.27c0.9,0,1.59-0.19,2.09-0.58
		c0.49-0.4,0.75-1.02,0.75-1.88c0-0.5-0.13-0.91-0.41-1.22c-0.27-0.31-0.63-0.56-1.07-0.77c-0.44-0.21-0.95-0.39-1.51-0.54
		c-0.57-0.16-1.14-0.33-1.73-0.52c-0.6-0.19-1.18-0.43-1.74-0.71c-0.56-0.28-1.07-0.64-1.51-1.1c-0.44-0.45-0.8-1.02-1.07-1.69
		c-0.27-0.68-0.41-1.51-0.41-2.5c0-0.81,0.16-1.58,0.48-2.34c0.32-0.77,0.8-1.44,1.42-2.04c0.61-0.59,1.38-1.07,2.29-1.42
		c0.91-0.35,1.95-0.53,3.12-0.53c0.65,0,1.28,0.05,1.9,0.15c0.61,0.11,1.2,0.26,1.76,0.45c0.56,0.2,1.08,0.44,1.56,0.72
		c0.47,0.28,0.91,0.59,1.29,0.95L449.4,96.42z"/>
	<rect x="453.82" y="92.1" class="st0" width="4.96" height="21.29"/>
	<path class="st0" d="M468.86,105.25h5.82l-1.96-5.84c-0.13-0.36-0.28-0.81-0.45-1.3c-0.16-0.5-0.33-1.05-0.49-1.63
		c-0.16,0.6-0.32,1.15-0.49,1.65c-0.17,0.5-0.32,0.95-0.47,1.31L468.86,105.25L468.86,105.25z M482.53,113.39h-3.82
		c-0.43,0-0.78-0.1-1.06-0.3c-0.28-0.2-0.47-0.45-0.59-0.77l-1.25-3.71h-8.1l-1.26,3.71c-0.09,0.27-0.28,0.51-0.56,0.74
		c-0.28,0.22-0.62,0.33-1.04,0.33H461l8.24-21.29h5.05L482.53,113.39z"/>
</g>
</svg>
