<?xml version="1.0" encoding="utf-8"?>
<!-- Generator: Adobe Illustrator 25.2.0, SVG Export Plug-In . SVG Version: 6.00 Build 0)  -->
<svg version="1.1" id="Layer_1" xmlns="http://www.w3.org/2000/svg" xmlns:xlink="http://www.w3.org/1999/xlink" x="0px" y="0px"
	 viewBox="0 0 512 245.06" style="enable-background:new 0 0 512 245.06;" xml:space="preserve">
<style type="text/css">
	.st0{fill-rule:evenodd;clip-rule:evenodd;fill:#ED7C39;}
	.st1{fill-rule:evenodd;clip-rule:evenodd;fill:#0672AA;}
	.st2{fill-rule:evenodd;clip-rule:evenodd;fill:#EEAB47;}
	.st3{fill-rule:evenodd;clip-rule:evenodd;fill:#EA6622;}
	.st4{fill-rule:evenodd;clip-rule:evenodd;fill:url(#SVGID_1_);}
	.st5{fill-rule:evenodd;clip-rule:evenodd;fill:url(#SVGID_2_);}
	.st6{fill-rule:evenodd;clip-rule:evenodd;fill:url(#SVGID_3_);}
	.st7{fill-rule:evenodd;clip-rule:evenodd;fill:url(#SVGID_4_);}
	.st8{fill-rule:evenodd;clip-rule:evenodd;fill:url(#SVGID_5_);}
	.st9{fill-rule:evenodd;clip-rule:evenodd;fill:url(#SVGID_6_);}
	.st10{fill-rule:evenodd;clip-rule:evenodd;fill:url(#SVGID_7_);}
	.st11{fill-rule:evenodd;clip-rule:evenodd;fill:url(#SVGID_8_);}
	.st12{fill-rule:evenodd;clip-rule:evenodd;}
</style>
<g>
	<path class="st0" d="M148.95,20.35c-9.86,0-17.85,7.99-17.85,17.85c0,6.67,3.67,12.48,9.09,15.55l-9.91,24.09l4.81,1.71l9.59-24.03
		c1.37,0.34,2.79,0.53,4.26,0.53c9.86,0,17.85-7.99,17.85-17.85C166.8,28.35,158.81,20.35,148.95,20.35L148.95,20.35z M148.95,52.46
		L148.95,52.46c-7.87,0-14.26-6.38-14.26-14.26c0-7.87,6.38-14.26,14.26-14.26c7.88,0,14.26,6.38,14.26,14.26
		C163.21,46.08,156.83,52.46,148.95,52.46z"/>
	<polygon class="st1" points="126.18,88.46 115.48,114.45 120.3,116.16 130.46,90.71 	"/>
	<polygon class="st2" points="95.43,124.21 68.11,117.64 67.16,122.65 93.86,128.78 	"/>
	<polygon class="st3" points="137.41,187.5 123.01,163.37 118.76,166.2 133.05,189.58 	"/>
	<radialGradient id="SVGID_1_" cx="122.2958" cy="159.6122" r="66.8851" gradientUnits="userSpaceOnUse">
		<stop  offset="0" style="stop-color:#96BC33"/>
		<stop  offset="1" style="stop-color:#0C9848"/>
	</radialGradient>
	<circle class="st4" cx="113.78" cy="144.71" r="35.48"/>
	<radialGradient id="SVGID_2_" cx="113.7809" cy="144.711" r="36.1246" gradientUnits="userSpaceOnUse">
		<stop  offset="0" style="stop-color:#96BC33"/>
		<stop  offset="0.45" style="stop-color:#96BC33"/>
		<stop  offset="1" style="stop-color:#00904C"/>
	</radialGradient>
	<circle class="st5" cx="113.78" cy="144.71" r="35.48"/>
	<radialGradient id="SVGID_3_" cx="62.2093" cy="122.6267" r="41.1576" gradientUnits="userSpaceOnUse">
		<stop  offset="0" style="stop-color:#FFE73F"/>
		<stop  offset="1" style="stop-color:#F2B442"/>
	</radialGradient>
	<circle class="st6" cx="56.97" cy="113.46" r="21.83"/>
	<radialGradient id="SVGID_4_" cx="56.9697" cy="113.4572" r="22.2293" gradientUnits="userSpaceOnUse">
		<stop  offset="0" style="stop-color:#FFE73F"/>
		<stop  offset="0.45" style="stop-color:#FFE73F"/>
		<stop  offset="1" style="stop-color:#EEA342"/>
	</radialGradient>
	<circle class="st7" cx="56.97" cy="113.46" r="21.83"/>
	<radialGradient id="SVGID_5_" cx="150.6949" cy="211.6518" r="41.6657" gradientUnits="userSpaceOnUse">
		<stop  offset="0" style="stop-color:#E4A03A"/>
		<stop  offset="1" style="stop-color:#EE7626"/>
	</radialGradient>
	<path class="st8" d="M167.49,202.37c0,12.21-9.89,22.1-22.1,22.1c-12.21,0-22.1-9.9-22.1-22.1s9.89-22.1,22.1-22.1
		C157.6,180.27,167.49,190.16,167.49,202.37z"/>
	<radialGradient id="SVGID_6_" cx="145.3906" cy="202.3692" r="22.5058" gradientUnits="userSpaceOnUse">
		<stop  offset="0" style="stop-color:#E4A03A"/>
		<stop  offset="0.45" style="stop-color:#E4A03A"/>
		<stop  offset="1" style="stop-color:#F26522"/>
	</radialGradient>
	<path class="st9" d="M167.49,202.37c0,12.21-9.89,22.1-22.1,22.1c-12.21,0-22.1-9.9-22.1-22.1s9.89-22.1,22.1-22.1
		C157.6,180.27,167.49,190.16,167.49,202.37z"/>
	<radialGradient id="SVGID_7_" cx="136.3681" cy="90.6591" r="40.8368" gradientUnits="userSpaceOnUse">
		<stop  offset="0" style="stop-color:#3C9CD7"/>
		<stop  offset="1" style="stop-color:#0079AF"/>
	</radialGradient>
	<path class="st10" d="M152.83,81.56c0,11.96-9.7,21.66-21.66,21.66c-11.96,0-21.66-9.7-21.66-21.66c0-11.96,9.7-21.66,21.66-21.66
		C143.13,59.9,152.83,69.6,152.83,81.56z"/>
	<radialGradient id="SVGID_8_" cx="131.1693" cy="81.5611" r="22.0581" gradientUnits="userSpaceOnUse">
		<stop  offset="0" style="stop-color:#33A3DC"/>
		<stop  offset="0.45" style="stop-color:#33A3DC"/>
		<stop  offset="1" style="stop-color:#006FA3"/>
	</radialGradient>
	<path class="st11" d="M152.83,81.56c0,11.96-9.7,21.66-21.66,21.66c-11.96,0-21.66-9.7-21.66-21.66c0-11.96,9.7-21.66,21.66-21.66
		C143.13,59.9,152.83,69.6,152.83,81.56z"/>
	<path class="st12" d="M194.42,73.87h-10.51v34.97h3.81v-12.3h7.32c10.36,0,14.07-3.92,14.07-11.13
		C209.1,77.42,204.88,73.87,194.42,73.87L194.42,73.87z M194.78,93.09L194.78,93.09h-7.06V77.32h5.41c7.26,0,12.11,0.36,12.11,8.09
		C205.24,90.92,202.35,93.09,194.78,93.09z"/>
	<path class="st12" d="M271.06,94.27c0,7.84-4.61,11.59-10.53,11.59c-6.02,0-10.42-3.74-10.42-11.59V73.85h-3.85v20.42
		c0,10.44,6.47,15.12,14.21,15.12c7.79,0,14.43-4.68,14.43-15.12V73.85h-3.85V94.27z"/>
	<path class="st12" d="M323.86,73.87h-10.51v34.97h3.81v-12.3h7.32c10.36,0,14.07-3.92,14.07-11.13
		C338.54,77.42,334.32,73.87,323.86,73.87L323.86,73.87z M324.22,93.09L324.22,93.09h-7.06V77.32h5.41c7.27,0,12.11,0.36,12.11,8.09
		C334.68,90.92,331.79,93.09,324.22,93.09z"/>
	<path class="st12" d="M400.91,94.68c0,7.84-4.61,11.59-10.53,11.59c-6.03,0-10.42-3.74-10.42-11.59V74.26h-3.85v20.42
		c0,10.44,6.47,15.12,14.21,15.12c7.79,0,14.43-4.68,14.43-15.12V74.26h-3.85V94.68z"/>
	<polygon class="st12" points="460.68,88.55 475.11,74.26 470.34,74.26 450.36,93.52 450.36,74.26 446.56,74.26 446.56,108.77 
		450.36,108.77 450.36,98.78 457.69,91.53 471.62,108.77 476.39,108.77 	"/>
	<rect x="183.91" y="122.76" class="st12" width="6.26" height="33.18"/>
	<polygon class="st12" points="223.45,155.94 209.34,131.83 209.34,155.94 203.09,155.94 203.09,122.76 210.21,122.76 
		224.18,146.91 224.18,122.76 230.44,122.76 230.44,155.94 	"/>
	<path class="st12" d="M262.04,154.1c-2.74,1.35-5.8,1.84-10.91,1.84h-7.85v-33.18h7.71c5.3,0,9.31,0.81,11.96,2.38
		c4.7,2.78,7.35,7.99,7.35,14.28C270.3,146.11,267.24,151.58,262.04,154.1L262.04,154.1z M258.84,129.99L258.84,129.99
		c-1.96-0.99-4.11-1.35-8.08-1.35h-1.23v21.42h1.37c3.74,0,6.34-0.45,8.22-1.48c3.01-1.62,4.89-5.16,4.89-9.16
		C264,135.15,262.04,131.6,258.84,129.99z"/>
	<path class="st12" d="M297.65,156.52c-9.91,0-17.76-7.59-17.76-17.15c0-9.7,7.76-17.2,17.81-17.2c9.63,0,17.35,7.68,17.35,17.15
		C315.06,149.03,307.47,156.52,297.65,156.52L297.65,156.52z M297.61,128.1L297.61,128.1c-6.49,0-11.41,4.85-11.41,11.27
		c0,6.29,5.02,11.23,11.41,11.23c6.39,0,11.14-4.8,11.14-11.18C308.75,133.04,303.87,128.1,297.61,128.1z"/>
	<polygon class="st12" points="346.75,155.94 332.63,131.83 332.63,155.94 326.38,155.94 326.38,122.76 333.5,122.76 347.48,146.91 
		347.48,122.76 353.73,122.76 353.73,155.94 	"/>
	<polygon class="st12" points="366.57,155.94 366.57,122.76 384.69,122.76 384.69,128.64 372.82,128.64 372.82,136.45 
		384.19,136.45 384.19,142.34 372.82,142.34 372.82,150.06 384.69,150.06 384.69,155.94 	"/>
	<path class="st12" d="M405.33,156.52c-5.93,0-10.55-3.77-11.09-10.06h6.53c0.28,2.78,1.78,4.13,4.57,4.13
		c2.7,0,4.57-1.66,4.57-4.04c0-1.35-0.55-2.6-1.55-3.37c-1.01-0.76-1.37-0.9-5.85-2.56c-4.52-1.66-7.03-4.85-7.03-9.03
		c0-5.25,4.38-9.43,9.82-9.43c5.43,0,9.68,3.59,10,9.43h-6.49c-0.18-2.24-1.46-3.5-3.56-3.5c-2.05,0-3.47,1.39-3.47,3.37
		c0,1.21,0.64,2.25,1.87,3.01c0.46,0.27,0.55,0.32,3.74,1.48c6.85,2.51,8.72,5.43,8.72,9.92
		C416.11,151.9,411.41,156.52,405.33,156.52z"/>
	<rect x="426.84" y="122.76" class="st12" width="6.26" height="33.18"/>
	<path class="st12" d="M469.49,155.94l-3.61-8.58h-12.01l-3.75,8.58h-6.9l14.06-33.18h4.93l14.15,33.18H469.49L469.49,155.94z
		 M459.77,131.43L459.77,131.43l-3.61,10.06h7.22L459.77,131.43z"/>
	<polygon class="st12" points="192.89,189.26 192.89,182.44 185.36,182.44 185.36,189.26 183.91,189.26 183.91,174.74 
		185.36,174.74 185.36,181.13 192.89,181.13 192.89,174.74 194.34,174.74 194.34,189.26 	"/>
	<path class="st12" d="M211.25,189.52c-4.27,0-7.68-3.38-7.68-7.61c0-4.03,3.52-7.43,7.68-7.43c4.21,0,7.67,3.38,7.67,7.53
		C218.92,186.12,215.46,189.52,211.25,189.52L211.25,189.52z M211.25,175.82L211.25,175.82c-3.36,0-6.21,2.81-6.21,6.13
		c0,3.44,2.79,6.23,6.21,6.23c3.38,0,6.19-2.79,6.19-6.15C217.44,178.63,214.63,175.82,211.25,175.82z"/>
	<polygon class="st12" points="228.14,189.26 228.14,174.74 229.6,174.74 229.6,187.95 235.61,187.95 235.61,189.26 	"/>
	<path class="st12" d="M248,189.26h-3.91v-14.53h3.42c2.64,0,4.17,0.31,5.54,1.14c2.16,1.28,3.3,3.44,3.3,6.17
		C256.36,186.23,253.68,189.26,248,189.26L248,189.26z M252.25,177L252.25,177c-1.1-0.67-2.48-0.94-4.68-0.94h-2.02v11.89h2.02
		c2.57,0,4.07-0.37,5.23-1.3c1.34-1.08,2.08-2.75,2.08-4.66C254.88,179.83,253.92,178,252.25,177z"/>
	<rect x="265.58" y="174.74" class="st12" width="1.45" height="14.53"/>
	<polygon class="st12" points="287,189.26 278.35,176.49 278.35,189.26 276.89,189.26 276.89,174.74 278.86,174.74 287,186.79 
		287,174.74 288.45,174.74 288.45,189.26 	"/>
	<path class="st12" d="M305.77,189.52c-4.44,0-7.9-3.3-7.9-7.55c0-4.21,3.38-7.49,7.7-7.49c3.17,0,5.92,1.65,6.88,4.13h-1.63
		c-1-1.77-2.89-2.79-5.13-2.79c-3.58,0-6.35,2.69-6.35,6.19c0,3.46,2.81,6.17,6.37,6.17c2.87,0,5.35-2,5.88-4.3h-8.12v-1.32h9.87
		C313.12,186.22,310.04,189.52,305.77,189.52z"/>
	<path class="st12" d="M341.82,189.52c-4.35,0-7.63-3.23-7.63-7.47c0-4.34,3.2-7.57,7.53-7.57c3.01,0,5.56,1.53,6.68,4.03h-1.63
		c-1.24-1.95-2.95-2.69-4.99-2.69c-3.46,0-6.11,2.67-6.11,6.17c0,3.4,2.77,6.19,6.13,6.19c2.12,0,3.52-0.81,5.05-2.73h1.61
		C347.01,188.14,344.77,189.52,341.82,189.52z"/>
	<path class="st12" d="M364.33,189.52c-4.26,0-7.68-3.38-7.68-7.61c0-4.03,3.52-7.43,7.68-7.43c4.21,0,7.67,3.38,7.67,7.53
		C371.99,186.12,368.53,189.52,364.33,189.52L364.33,189.52z M364.33,175.82L364.33,175.82c-3.36,0-6.21,2.81-6.21,6.13
		c0,3.44,2.79,6.23,6.21,6.23c3.38,0,6.19-2.79,6.19-6.15C370.52,178.63,367.71,175.82,364.33,175.82z"/>
	<polygon class="st12" points="394.84,189.26 394.84,176.33 389.37,189.26 388.11,189.26 382.67,176.33 382.67,189.26 
		381.22,189.26 381.22,174.74 383.48,174.74 388.77,187.1 394.03,174.74 396.29,174.74 396.29,189.26 	"/>
	<path class="st12" d="M410.39,183.38h-2.79v5.88h-1.45v-14.53h4.01c3.99,0,5.6,1.36,5.6,4.4
		C415.76,181.89,414.34,183.38,410.39,183.38L410.39,183.38z M409.66,176.05L409.66,176.05h-2.07v6.01h2.69
		c2.89,0,3.99-0.83,3.99-2.93C414.28,176.19,412.43,176.05,409.66,176.05z"/>
	<path class="st12" d="M434.71,189.26l-2.1-4.89h-6.76l-2.12,4.89h-1.53l6.23-14.53h1.63l6.25,14.53H434.71L434.71,189.26z
		 M429.25,176.39L429.25,176.39l-2.85,6.66h5.64L429.25,176.39z"/>
	<polygon class="st12" points="454.98,189.26 446.33,176.49 446.33,189.26 444.88,189.26 444.88,174.74 446.85,174.74 
		454.98,186.79 454.98,174.74 456.44,174.74 456.44,189.26 	"/>
	<polygon class="st12" points="471.32,184.41 471.32,189.26 469.87,189.26 469.87,184.41 464.83,174.74 466.45,174.74 
		470.57,182.87 474.8,174.74 476.39,174.74 	"/>
</g>
</svg>
