<?xml version="1.0" encoding="utf-8"?>
<!-- Generator: Adobe Illustrator 25.2.0, SVG Export Plug-In . SVG Version: 6.00 Build 0)  -->
<svg version="1.1" id="Layer_1" xmlns="http://www.w3.org/2000/svg" xmlns:xlink="http://www.w3.org/1999/xlink" x="0px" y="0px"
	 viewBox="0 0 500.5 1080" style="enable-background:new 0 0 500.5 1080;" xml:space="preserve">
<style type="text/css">
	.st0{fill:none;stroke:#1F70BB;stroke-width:4.5298;stroke-miterlimit:10;}
	.st1{fill:#00CBF0;}
	.st2{fill:#A8E448;}
	.st3{fill:#F0B11B;}
	.st4{fill:#F02B5A;}
	.st5{fill:#48248C;}
	.st6{fill:#537BEB;}
	.st7{fill:#FFFFFF;}
</style>
<path class="st0" d="M-6.85,1016.22h3.47V650.67v-13.96v-1.91v-25.74v-52.64v-9.25V492.2v-4.11v-72.13v-9.25v-47.55v-4.17v-68.94
	V251v-4.11h0.18l-0.16-0.03V130.25c1.03,5.6,5.52,9.91,10.1,13.39c4.58,3.48,9.62,6.7,12.62,11.57c4.04,6.57,3.81,15.09,2.49,22.65
	c8.6-4.59,20.12-3.14,27.25,3.44c7.13,6.58,12.66,20.65,17.29,20.38c4.63-0.27,9.51,1.91,11.74,5.9c3.3,5.91,0.19,13.14,0,19.88
	c-0.16,5.57,1.77,10.74,5.45,14.99c8.86-10.83,24.3-16.3,38.13-13.35c8.36-5.63,13.82-15.53,13.95-25.48
	c4.86,4.21,7.03,10.82,7.05,17.19c0.02,6.37-1.88,12.85-4.04,18.85c5.8,6.09,6.5,16.24,1.6,23.05c-4.9,6.81-14.88,9.55-22.66,6.22
	l-0.17-0.03c-2.04,4.68-4.54,9.17-7.49,13.46c0,0.06-0.06,0.06-0.06,0.12c-0.86,1.16-1.72,2.39-2.64,3.55v3.48v65.46h11.48
	c0.8-6.52,5.5-12.41,11.69-14.62c4.33-1.55,9.49-1.56,12.73-4.82c3.4-3.42,3.05-9.49-0.04-13.19c-3.09-3.7-7.62-4.7-12.44-4.37
	c4.47-6.44,13.95-8.47,21-5.03c7.04,3.44,11.24,11.59,10.69,19.41c-0.27,3.8-1.31,8.25,1.41,10.92c2.88,2.83,7.83,1.3,10.97-1.22
	c4.84-3.9,8.5-9.76,9.02-15.95c5.24,2.29,8.34,8.16,8.42,13.88c0.09,5.72-2.25,11.32-5.67,15.91c0.44,4.3,0.88,8.65,0.22,12.92
	c-0.67,4.27-2.57,8.51-6.03,11.11c-4.06,3.06-9.62,3.38-14.61,2.42c-0.33-0.4-0.68-0.77-1.01-1.16c-2.29,4.88-4.94,9.49-7.94,13.87
	c-2.7,4.11-5.76,7.97-9.07,11.64v3.62v68.64l2.29,9.13c0,0,8.1-0.02,8.05-0.03c0.91-7.67-4.54-20.78,9.54-26.13
	c5.03-1.91,11.12-1.83,14.91-5.64c3.98-4.01,3.57-11.11-0.05-15.44c-3.62-4.34-8.93-5.5-14.56-5.12c5.23-7.54,16.34-9.91,24.58-5.89
	c8.25,4.03,13.16,13.57,12.51,22.73c-0.31,4.45-1.53,9.66,1.65,12.78c3.37,3.31,9.16,1.53,12.84-1.43
	c5.67-4.56,9.95-11.43,10.56-18.68c6.14,2.68,9.76,9.56,9.86,16.25c0.1,6.7-2.64,13.26-6.64,18.63c0.52,5.03,1.03,10.13,0.26,15.13
	c-0.78,5-3.01,9.97-7.06,13.01c-4.76,3.58-15.5,4.52-21.35,3.4c-0.01-0.01-0.02-0.02-0.02-0.03c-10.66,14-24.23,25.73-40.34,35.52
	v3.68v53.07h3.19c2.88,0,5.21,2.33,5.21,5.15v25.74c0,1.96-1.1,3.68-2.76,4.53c-0.14,0.07-0.29,0.11-0.44,0.16l0.05,0.32l3.21,21.95
	l0.03,0c0.02-0.12,0.02-0.24,0.03-0.37v-0.06c0.67-3.06,3.43-5.45,6.74-5.45h30.38c1.23-10.49-5.78-37.68,13.46-44.98
	c6.88-2.61,15.2-2.5,20.38-7.71c5.45-5.48,4.88-15.18-0.07-21.11c-4.95-5.93-12.2-7.52-19.91-7c7.15-10.31,22.33-13.55,33.6-8.05
	c11.27,5.5,17.98,18.55,17.1,31.06c-0.43,6.08-2.09,13.2,2.25,17.47c4.6,4.52,12.52,2.09,17.55-1.96
	c7.75-6.24,13.6-15.62,14.43-25.53c8.39,3.67,13.34,13.06,13.48,22.22c0.14,9.15-3.61,18.12-9.08,25.46
	c0.71,6.88,1.41,13.85,0.35,20.68c-0.15,0.97-0.35,1.94-0.59,2.9c0.6,1.02,0.97,2.2,0.97,3.46v50.13c0,2.27-1.1,4.29-2.82,5.52
	c-1.16,0.86-2.57,1.35-4.11,1.35h-1.62l0.1,1.99l0.04,0.75h0l0.85,17.6c4.89,3.84,8.04,9.79,8.04,16.49v14.79
	c0,4-2.55,7.39-6.12,8.65l2.34,48.51c1.75-1.56,4.03-2.51,6.54-2.51h30.86c-0.24-12.79-3.72-35.39,13.84-42.05
	c7.15-2.71,15.79-2.6,21.18-8.02c5.66-5.69,5.07-15.78-0.07-21.94c-5.15-6.16-12.68-7.81-20.69-7.27
	c7.43-10.71,23.21-14.08,34.92-8.36c11.71,5.72,18.69,19.28,17.78,32.28c-0.44,6.32-2.18,13.72,2.34,18.16
	c4.79,4.7,13.02,2.17,18.24-2.03c8.06-6.48,14.13-16.23,15-26.53c8.72,3.81,13.87,13.58,14.01,23.09
	c0.15,9.51-3.75,18.84-9.43,26.46c0.74,7.15,1.47,14.39,0.36,21.5c-0.48,3.07-1.37,6.12-2.67,8.96v46.36c0,2.94-1.23,5.58-3.25,7.29
	c-1.78,1.72-4.11,2.7-6.68,2.7h-3.12l0.02,1.78h0l0.2,20.17c6.53,3.55,10.96,10.47,10.96,18.43v14.79c0,5.08-4.12,9.19-9.19,9.19
	c-0.46,0-0.92-0.05-1.36-0.11l0.54,55.31h5.39c0,0,0,0,0,0h9.52c0.69,0,1.25,0.56,1.25,1.24v26c0,0.69-0.56,1.25-1.25,1.25h-0.52
	v46.92h-6.15h-7.51l0,0.02H-3.38v-0.02h-2.95v-46.92h-0.52c-0.69,0-1.25-0.56-1.25-1.25v-26C-8.1,1016.78-7.54,1016.22-6.85,1016.22
	z"/>
<g>
	
		<rect x="218.04" y="789.6" transform="matrix(-1 -4.492996e-11 4.492996e-11 -1 508.4993 1725.0946)" class="st1" width="72.43" height="145.9"/>
	
		<rect x="-0.49" y="935.46" transform="matrix(-1 -4.489532e-11 4.489532e-11 -1 144.6737 2016.4045)" class="st2" width="145.66" height="145.49"/>
	
		<rect x="72.69" y="862.92" transform="matrix(-1 -4.488955e-11 4.488955e-11 -1 217.9192 1798.3807)" class="st1" width="72.53" height="72.53"/>
	<g>
		<path class="st3" d="M145.25,789.34H-0.53c0,40.26,32.64,72.89,72.89,72.89C112.63,862.24,145.25,829.61,145.25,789.34z"/>
		<path class="st4" d="M112.1,789.34H32.62c0,21.95,17.8,39.74,39.74,39.74C94.31,829.09,112.1,811.3,112.1,789.34z"/>
	</g>
	<g>
		<path class="st1" d="M145.33,645.13l0,144.49h145.29C290.18,709.75,225.31,645.13,145.33,645.13z"/>
		<path class="st3" d="M145.37,717.79l0,71.83h72.61C217.56,749.86,185.23,717.79,145.37,717.79z"/>
	</g>
	<g>
		<polygon class="st5" points="145.33,644.24 145.33,498.45 72.44,571.35 		"/>
		<polygon class="st6" points="145.33,603.35 145.33,539.35 113.33,571.35 		"/>
	</g>
	<g>
		
			<rect x="20.89" y="446.91" transform="matrix(0.7071 -0.7071 0.7071 0.7071 -331.2416 197.2142)" class="st1" width="103.09" height="103.09"/>
		<polygon class="st4" points="145.33,498.44 72.44,498.19 72.44,571.35 		"/>
		<polygon class="st4" points="-0.45,498.46 72.44,498.19 72.44,425.56 		"/>
	</g>
	<g>
		<path class="st3" d="M72.29,789.22c-40.25,0-72.89-32.64-72.89-72.89h145.78C145.18,756.58,112.56,789.22,72.29,789.22z"/>
		
			<rect x="35.83" y="606.97" transform="matrix(-4.488606e-11 1 -1 -4.488606e-11 752.1592 607.5716)" class="st1" width="72.92" height="145.78"/>
		<circle class="st4" cx="72.46" cy="716.13" r="40.73"/>
	</g>
	<g>
		
			<rect x="93.64" y="373.68" transform="matrix(0.7071 -0.7071 0.7071 0.7071 -258.1544 227.2093)" class="st5" width="103.09" height="103.09"/>
		<polygon class="st4" points="218.08,425.22 145.19,425.46 145.19,498.12 		"/>
		<polygon class="st4" points="72.3,425.23 145.19,425.46 145.19,352.33 		"/>
	</g>
	
		<rect x="20.86" y="956.44" transform="matrix(0.7071 -0.7071 0.7071 0.7071 -691.5515 346.432)" class="st5" width="103.09" height="103.09"/>
	<polygon class="st6" points="-0.49,1007.99 72.44,1007.59 72.4,1080.88 	"/>
	<g>
		<polygon class="st7" points="-0.65,498.23 145.37,644.24 -0.65,644.24 		"/>
		
			<ellipse transform="matrix(0.6095 -0.7928 0.7928 0.6095 -468.125 266.1615)" class="st6" cx="36.09" cy="608.23" rx="23.02" ry="23.02"/>
	</g>
	<g>
		<path class="st1" d="M363.5,1008c0,0-1.71,34.86,18.16,54.53s53.85,17.93,53.85,17.93s1.76-33.63-18.12-53.31
			S363.5,1008,363.5,1008z"/>
		<path class="st6" d="M435.51,935.5c0,0,1.71,34.86-18.16,54.53c-19.87,19.67-53.85,17.93-53.85,17.93s-1.76-33.63,18.12-53.3
			C401.49,934.99,435.51,935.5,435.51,935.5z"/>
		<path class="st1" d="M363.43,1008c0,0,1.71,34.86-18.16,54.53c-19.87,19.67-53.85,17.93-53.85,17.93s-1.76-33.63,18.12-53.31
			C329.4,1007.49,363.43,1008,363.43,1008z"/>
		<path class="st6" d="M291.41,935.5c0,0-1.71,34.86,18.16,54.53c19.87,19.67,53.85,17.93,53.85,17.93s1.76-33.63-18.12-53.31
			S291.41,935.5,291.41,935.5z"/>
	</g>
	<g>
		<path class="st1" d="M217.49,280.63c0,0,1.71,34.86-18.16,54.53c-19.87,19.67-53.85,17.93-53.85,17.93s-1.76-33.63,18.12-53.31
			C183.47,280.12,217.49,280.63,217.49,280.63z"/>
	</g>
	<g>
		
			<rect x="145.37" y="1008.02" transform="matrix(-1 -4.494239e-11 4.494239e-11 -1 363.2316 2088.5305)" class="st3" width="72.49" height="72.49"/>
		<polygon class="st2" points="217.86,1008.02 145.37,1008.02 145.37,1080.51 		"/>
	</g>
	<g>
		
			<rect x="217.97" y="1008.02" transform="matrix(4.486728e-11 -1 1 4.486728e-11 -790.046 1298.4845)" class="st6" width="72.49" height="72.49"/>
		<polygon class="st5" points="290.46,1080.51 290.46,1008.02 217.97,1008.02 		"/>
	</g>
	<g>
		
			<rect x="145.37" y="790.08" transform="matrix(-1 -4.491752e-11 4.491752e-11 -1 363.2316 1798.142)" class="st5" width="72.49" height="217.99"/>
		<g>
			
				<ellipse transform="matrix(0.9728 -0.2317 0.2317 0.9728 -186.6228 64.5835)" class="st6" cx="181.62" cy="826.73" rx="23.03" ry="23.02"/>
			
				<ellipse transform="matrix(0.7071 -0.7071 0.7071 0.7071 -582.5452 391.7536)" class="st6" cx="181.62" cy="899.07" rx="23.03" ry="23.03"/>
			
				<ellipse transform="matrix(0.9728 -0.2317 0.2317 0.9728 -220.1471 68.5211)" class="st6" cx="181.62" cy="971.41" rx="23.03" ry="23.02"/>
		</g>
	</g>
	<path class="st2" d="M218.04,862.04L218.04,862.04c40.19,0,72.77,32.58,72.77,72.77v73.25h-72.77V862.04z"/>
	<g>
		<path class="st4" d="M290.66,791.2c0,0-34.86-1.71-54.53,18.16s-17.93,53.85-17.93,53.85s33.63,1.76,53.3-18.12
			C291.17,825.22,290.66,791.2,290.66,791.2z"/>
		<path class="st2" d="M363.46,718.73c0,0-34.86-1.71-54.53,18.16c-19.67,19.87-17.93,53.85-17.93,53.85s33.63,1.76,53.3-18.12
			C363.97,752.75,363.46,718.73,363.46,718.73z"/>
	</g>
	<g>
		<path class="st2" d="M217.91,572.86c0,0-34.86-1.71-54.53,18.16s-17.93,53.85-17.93,53.85s33.63,1.76,53.3-18.12
			C218.42,606.88,217.91,572.86,217.91,572.86z"/>
	</g>
	<g>
		<polygon class="st4" points="-0.37,427.16 -0.37,277.5 74.45,352.34 		"/>
		<polygon class="st1" points="74.45,352.34 145.19,352.74 -0.37,498.19 -0.37,427.16 		"/>
	</g>
	<polygon class="st1" points="-0.53,902.4 -0.53,966.4 31.47,934.39 	"/>
	<polygon class="st5" points="72.45,935.43 72.45,862.95 -0.04,862.95 	"/>
</g>
</svg>
