<?xml version="1.0" encoding="utf-8"?>
<!-- Generator: Adobe Illustrator 25.2.0, SVG Export Plug-In . SVG Version: 6.00 Build 0)  -->
<svg version="1.1" id="Layer_1" xmlns="http://www.w3.org/2000/svg" xmlns:xlink="http://www.w3.org/1999/xlink" x="0px" y="0px"
	 viewBox="0 0 386.17 158.43" style="enable-background:new 0 0 386.17 158.43;" xml:space="preserve">
<style type="text/css">
	.st0{fill:#FFFFFF;}
	.st1{fill:none;stroke:#FFFFFF;stroke-width:1.2033;stroke-miterlimit:10;}
</style>
<g>
	<path class="st0" d="M157.19,58.49h33.66c0,0,6.6,0.17,5.75,8.12l-24.86,25.03h18.77c0,0,9.13-1.01,8.29,8.46h-32.3
		c0,0-6.93,0.34-7.1-8.46l25.03-24.86h-18.77C165.65,66.78,156.17,66.78,157.19,58.49z"/>
	<path class="st1" d="M147.42,79.22c0-28.85-23.39-52.24-52.24-52.24c-28.85,0-52.24,23.39-52.24,52.24
		c0,28.85,23.39,52.24,52.24,52.24C124.03,131.46,147.42,108.07,147.42,79.22z"/>
	<path class="st0" d="M217.61,91.98c-7.01,0-12.69-5.68-12.69-12.69c0-7.01,5.68-12.69,12.69-12.69c7.01,0,12.69,5.68,12.69,12.69
		C230.3,86.3,224.62,91.98,217.61,91.98z M238.59,79.29c0-11.58-9.39-20.97-20.97-20.97c-11.58,0-20.97,9.39-20.97,20.97
		c0,11.58,9.39,20.97,20.97,20.97C229.2,100.27,238.59,90.88,238.59,79.29z"/>
	<path class="st0" d="M261.59,91.98c-7.01,0-12.69-5.68-12.69-12.69c0-7.01,5.68-12.69,12.69-12.69c7.01,0,12.69,5.68,12.69,12.69
		C274.28,86.3,268.6,91.98,261.59,91.98z M282.56,79.29c0-11.58-9.39-20.97-20.97-20.97c-11.58,0-20.97,9.39-20.97,20.97
		c0,11.58,9.39,20.97,20.97,20.97C273.17,100.27,282.56,90.88,282.56,79.29z"/>
	<path class="st0" d="M284.54,58.32v41.78c0,0,7.95,1.52,8.29-6.94V75.23c0,0,0.34-8.46,8.63-8.63c0,0,7.95,0.34,8.29,8.29v18.44
		c0,0,0.51,7.44,8.63,6.77V75.06c0,0,0.17-8.96,8.63-8.46c0,0,7.1,0.51,7.61,7.1v17.42c0,0-0.68,9.98,8.63,8.97V74.39
		c0,0-0.51-14.38-15.39-16.07c0,0-9.47-0.34-13.95,5.75c0,0-9.92-11.23-21.73-2.71C292.16,61.36,289.45,58.66,284.54,58.32z"/>
	<path class="st0" d="M61.4,60.19h38.48c0,0,9.38,0.94,9.7,8.45v29.09H72.35c0,0-10.64,1.25-10.95-9.7V60.19z"/>
	<polygon class="st0" points="128.34,60.19 128.34,97.77 111.76,86.78 111.76,71.45 	"/>
</g>
</svg>
